# xmcd
#
# Track frame offsets:
#	150
#	18099
#	37955
#	58875
#	76701
#	90686
#	114660
#	134906
#	157476
#	177187
#	194903
#	219367
#	245738
#	272997
#
# Disc length: 3841 seconds
#
# Revision: 1
# Processed by: cddbd v1.5.2PL0 Copyright (c) Steve Scherf et al.
# Submitted via: EZCDAudioConverter 8.5.0.1
#
DISCID=d30eff0e
DTITLE=R.E.M. - Monster: 25th Anniversary Edition 4/5
DYEAR=1900
DGENRE=
TTITLE0=What's The Frequency, Kenneth? [Live In Chicago]
TTITLE1=Circus Envy [Live In Chicago]
TTITLE2=Crush With Eyeliner [Live In Chicago]
TTITLE3=Near Wild Heaven [Live In Chicago]
TTITLE4=Welcome To The Occupation [Live In Chicago]
TTITLE5=Undertow [Live In Chicago]
TTITLE6=I Took Your Name [Live In Chicago]
TTITLE7=Strange Currencies [Live In Chicago]
TTITLE8=Me In Honey [Live In Chicago]
TTITLE9=Revolution [Live In Chicago]
TTITLE10=Tongue [Live In Chicago]
TTITLE11=Man On The Moon [Live In Chicago]
TTITLE12=Country Feedback [Live In Chicago]
TTITLE13=Monty Got A Raw Deal [Live In Chicago]
EXTD=
EXTT0=
EXTT1=
EXTT2=
EXTT3=
EXTT4=
EXTT5=
EXTT6=
EXTT7=
EXTT8=
EXTT9=
EXTT10=
EXTT11=
EXTT12=
EXTT13=
PLAYORDER=
